<?xml version="1.0" encoding="UTF-8"?>
<svg id="Capa_2" data-name="Capa 2" xmlns="http://www.w3.org/2000/svg" viewBox="0 0 379.2 233.8">
  <defs>
    <style>
      .cls-1 {
        fill: #c49fff;
      }
    </style>
  </defs>
  <g id="Layer_1" data-name="Layer 1">
    <g id="qxEJpX">
      <g>
        <path class="cls-1" d="M379.2,156.58c-3.1-.3-6.1-.8-9.2-.8-36-.1-72,0-108,0h-8.8c-3.3,14.6,4.2,30.9,17.5,38.6,19,10.9,46.1,8.8,58.4-9.7,1.1-1.6,3.4-3.4,5.2-3.5,13.1-.3,26.3-.2,40.1-.2-1.4,13.2-8.9,22-17,30.1-15,15-33.5,21.9-54.6,22.6-15.3.5-30.2-.4-44.6-6.3-25.6-10.4-42.3-28-47.2-55.7-4.7-26.5-4.3-52.7,9.2-76.8,13.8-24.7,36-37,64-38.8,22.4-1.5,43.9,1.2,62.3,15.4,19.2,14.7,28.5,34.8,30.3,58.7.6,8.3,1.6,16.6,2.4,24.8,0,.5,0,1.1,0,1.6ZM253.6,127.48h78.6c.9-21.4-15.1-37.2-36.6-37.5-25.7-.3-42.4,14.5-42,37.5Z"/>
        <path class="cls-1" d="M153.9,105.78c3.7,1.9,6.2,3.1,8.5,4.4,16.6,9,25.6,22.7,27.1,41.8,2.3,29.4-7.4,53.5-34.2,66.7-12.9,6.3-28.5,8.9-43,9.5-34.8,1.3-69.8.3-104.6.6-6.1,0-7.7-2.3-7.7-7.9C.1,149.98.1,79.08,0,8.18,0,2.48,1.7.08,7.7.18c39.1.2,78.3-.9,117.3.7,27.6,1.1,50.9,15.2,56.4,44,4.5,23.5-.5,45.8-22.5,57.4-1.3.4-2.3,1.4-5,3.5ZM83.1,126.28v.8c-10.4,0-20.8.3-31.2-.1-6-.2-7.9,2.2-7.8,7.9.2,16,.2,32,0,48-.1,6.1,2.2,8.4,8.4,8.3,18.5-.3,37.1.1,55.6-.3,5.5-.1,11.2-1.3,16.4-3.2,13.7-4.8,20.1-17,19-34.7-.8-12.5-8.1-21.8-21.9-24.1-12.7-2-25.7-1.8-38.5-2.6ZM81.6,36.68v.8c-9.8,0-19.7.2-29.5-.1-5.7-.2-8.2,1.7-8.1,7.6.2,12.6.2,25.3,0,37.9-.1,6.1,2.4,8.5,8.5,8.5,17.1-.2,34.3.3,51.4-.3,6.6-.2,13.4-1.7,19.7-3.9,11.4-4,15.8-12.8,14.9-27.9-.6-10.6-6.6-18.1-18.3-19.8-12.8-1.8-25.7-1.9-38.6-2.8Z"/>
        <path class="cls-1" d="M291.4,35.98c-13.5,0-27-.2-40.4.1-5.7.1-8.1-1.6-7.9-7.7.5-21.6-2.5-17.8,17.6-18,23.9-.2,47.7.2,71.6-.2,6.8-.1,9.5,1.7,9.2,8.9-.7,19.5,2.5,16.6-17.2,16.8-11,.2-21.9.1-32.9.1Z"/>
      </g>
    </g>
  </g>
</svg>