<?xml version="1.0" encoding="UTF-8"?>
<svg id="Capa_2" data-name="Capa 2" xmlns="http://www.w3.org/2000/svg" viewBox="0 0 254.44 254.28">
  <defs>
    <style>
      .cls-1 {
        fill: #c49fff;
      }
    </style>
  </defs>
  <g id="Layer_1" data-name="Layer 1">
    <g id="_8M1d5A" data-name="8M1d5A">
      <g>
        <path class="cls-1" d="M254.42,127.08c0,18.4-.1,36.7,0,55.1.2,31-20.1,55.8-46.2,66.1-10.6,4.2-21.5,6-32.8,6-32.8-.1-65.6,0-98.4-.2-9.6,0-19.1-1.1-28.2-4.5-23.8-9.2-40.1-25.6-46.8-50.5-1.4-5.4-1.9-11.1-1.9-16.7C-.07,146.27.02,110.07.02,73.97.02,58.57,3.33,44.07,12.83,31.57,25.83,14.67,42.93,4.38,64.13,1.07c5.3-.8,10.7-1,16.1-1C112.13-.02,143.93-.02,175.83.07c17.3.1,33.6,3.8,47.8,14.1,13.7,10,24.1,22.6,28.3,39.3,1.5,6.1,2.2,12.5,2.3,18.7.3,18.4.2,36.6.2,54.9h0ZM19.02,127.48h0c.1,17.7.2,35.4,0,53.1-.1,11.9,2.8,22.6,10.2,32,7,9,15.6,15.6,26.5,19.3,7.1,2.4,14.5,3.4,21.9,3.4,32.8.1,65.6,0,98.4.1,11.6,0,22.4-2.5,32.6-8.3,17.2-10,26.7-24.7,26.8-44.7.2-37.2.3-74.3,0-111.5-.2-22-12.5-36.5-31.2-46.2-8.4-4.4-17.7-5.6-27.1-5.6-32.6-.1-65.3,0-97.9-.1-10.6,0-20.7,1.8-30.2,6.6-18.5,9.6-29.4,24.4-29.8,45.7-.5,18.7-.2,37.4-.2,56.2Z"/>
        <path class="cls-1" d="M127.32,63.58c32.8-.1,59.7,26.3,59.8,58.8.1,32.3-26.7,59-59.6,59.1s-59.8-26.4-59.8-59.1c0-32.2,26.8-58.7,59.6-58.8ZM127.42,162.58c22.5.1,40.8-17.9,40.8-40,.1-21.9-18.2-39.9-40.6-40-22.5-.1-40.9,17.8-40.9,39.8,0,22.1,18.2,40.1,40.7,40.2Z"/>
        <path class="cls-1" d="M206.72,58.88c-.1,7.1-5.8,12.9-12.6,12.9s-12.5-6-12.5-13.1,5.9-13.2,12.7-13.1c6.8.2,12.4,6.2,12.4,13.3Z"/>
      </g>
    </g>
  </g>
</svg>