<?xml version="1.0" encoding="UTF-8"?>
<svg id="Capa_2" data-name="Capa 2" xmlns="http://www.w3.org/2000/svg" viewBox="0 0 938.61 336.44">
  <defs>
    <style>
      .cls-1 {
        fill: #c49fff;
      }
    </style>
  </defs>
  <g id="Layer_1" data-name="Layer 1">
    <g>
      <path class="cls-1" d="M626.38,302.57c-13.9-7.3-27.8-14.6-41.7-21.9-14.9-7.8-29.7-16.4-43.7-25.9-6.5-4.4-13.1-8.8-19.6-13.2-10.9-7.3-20.4-15.4-30.3-24-11.4-9.8-21.6-21.1-30.1-33.6-8.4-12.4-16.4-23.3-20.1-38.4-2.5-10-5.3-21.6-6.2-31.9-.7-7.9-2.6-15.8-3.6-23.8-.9-7.2-3.1-19.5-12.9-17.9-8.5,1.3-10.8,9.4-13.4,16.4-3.6,10.1-5.3,21.3-7.3,31.9-4.7,25.9-1.2,55.3,8.8,79.6.3.8.6,1.6.9,2.4-.2-.3-.3-.6-.5-.8.3.5.5,1.1.8,1.6.4,1.3.9,2.6,1.6,3.8.4.6.7,1.3,1.1,1.9,7.8,16.6,16,34.6,23.7,50.7,2.6,0,5.3-.1,7.9-.1.9,0,1.9.1,2.8.1,1.4-1.1,2.8-2.2,4.2-3.2-7.9-15.2-15.8-30.3-23.6-45.5-9.1-17.8-14.3-40.5-14.2-60.4,0-9,.9-18.2,1.3-27.2.5-.9,1-1.9,1.8-3.2,2,6,4,11.9,5.9,17.9,4.3,12.8,9.7,24.2,16.3,35.9,13.2,23.3,31.4,40,50.1,58.8.9.7,1.7,1.4,2.6,2.1.4.2.8.5,1.1.7,2.2,1.8,4.5,3.6,6.7,5.4,3,2.6,6.2,5.1,9,7.8.9.8,1,2.4,1.5,3.7-16.3,2.9-32.5,5.8-48.8,8.6-1.9.3-4,.1-6,.2-.8-.8-1.5-1.6-2.3-2.5-.5-.7-1-1.5-1.5-2.2-1.4,1.1-2.8,2.2-4.2,3.2-.9,0-1.9-.1-2.8-.1,3.1,5.9,6.3,11.9,9.4,17.8.1.8.2,1.7.3,2.5v1.3c1.7,3.4,3.3,6.9,5,10.3-1.7-3.4-3.3-6.9-5-10.3v-1.3c-.1-.8-.2-1.7-.3-2.5-3.1-5.9-6.3-11.9-9.4-17.8-2.7,0-5.3.1-7.9.1,3.9,7.3,7.9,14.5,11.8,21.8,6.7,15,12.9,29.8,18.2,45.4.9,2.6,1.9,5.3,4,7,2.4,2,9.4,3.8,12.2,1.8,2-1.4,3.2-6.6,3.3-8.9.5-7.1-3.7-15.1-6.5-21.2-1.3-2.7-2.5-5.4-3.8-8.2-2.4-5.4-4.7-10.8-7.1-16.3,1.9-.3,3.8-.5,5.6-.8,1.3-.2,2.7-.5,4-.7.9,0,1.8-.1,2.7-.1,8-.4,16.2-2.4,24.1-3.5,6-.9,11.8-2.2,17.7-3.6,5.3-1.2,10.8-1.2,16.2-2.2,2.2,1,4.5,2,6.7,3,17,9.5,33.8,19.3,50.9,28.5,6.2,3.4,12.6,6.6,19.1,9.3,6,2.5,12,6,18.7,3.8,1-.3,1.9-.8,2.5-1.6.3-.4.4-.8.5-1.3,1.2-5.1-4.7-7.4-8.2-9.2Z"/>
      <path class="cls-1" d="M125.28,61.37c-2.3-5.2-5.2-10.2-8.6-15.1-3.5-4.9-7.1-9.7-10.7-14.4-1.8-2.4-3.7-4.7-5.6-7.1-2.7-3.4-5.4-7.1-9-9.6-.5-.4-1.1-.7-1.7-.8-.6-.1-1.3.1-1.9.5-1.3.8-2.1,2.1-2.9,3.4-3.4,5.4-7.4,10.6-11.1,15.8.2.8.3,1.5.5,2.3,5.3-2.4,10.6-4.7,16-7.1-5.4,2.4-10.7,4.7-16,7.1-.2-.8-.3-1.5-.5-2.3-13.8,20.6-27.6,41.2-41.5,61.8-2.7,4-5.4,8-8.2,12-6.7,9-13.5,18.1-20.2,27.1-4.7,5.3-4.4,9.5-2.9,11.7,2,2.7,4.2,5.8,7.2,7.5,3.7,2.1,7.2-.9,9.7-3.6,3.7-4,6.4-8.4,9.3-12.9,3.5-5.3,7.2-10.6,10.4-16.1,1-1.8,2.1-3.5,3.1-5.3,2.1-3.2,4.1-6.5,6-9.4,3.6,3.3,6.8,6.3,10.1,9.3,2.7,2.8,5.4,5.6,8.1,8.3.4.4.8.8,1.1,1.2,6,5.7,11.6,11.8,18,17,7.5,6,20.1,10.7,29.1,5.3,16.7-9.9,18.7-40.9,18.4-57.9-.2-10.2-2.3-19.7-6.2-28.7ZM119.98,100.57c-.2,2-.9,5.4-1.9,9.3-2.4,9-7.4,23.8-19.3,22.8-2.4-.2-4.7-1.2-6.9-2.3-9-4.5-16.9-11.3-23.1-19.1-4-5-10.2-10.3-12.5-16.4-1.3-3.3.2-5.4,1.8-8.3,1.5-2.7,2.9-5.4,4.4-8.2-1.2-1.2-2.3-2.4-3.6-3.7,1.3,1.3,2.5,2.5,3.6,3.7,6.3-10.5,12.5-21.1,18.8-31.6-2.2-.2-4.4-.5-6.7-.7,2.3.3,4.5.5,6.7.7,2.5-3.6,4.9-7.1,7.7-11,4.1,5.1,7.6,9.3,11,13.6,3,3.7,6.3,7.3,9,11.3,7.5,11.4,12.6,25.8,11,39.9Z"/>
      <path class="cls-1" d="M332.38,292.67c-11.6-13.5-22.3-28.4-34.1-41.4-.4-.4-.8-.8-1.1-1.2-1.4-1.7-2.8-3.5-4.1-5.2-5.3-7.7-10.6-15.5-15.9-23.2-1.6-2.9-3.1-5.7-4.7-8.6-7.7-14.2-15.9-28-21.6-43.2-5.6-14.9-9.8-30.3-14.8-45.4-.8-2.7-1.2-5.5-2.6-7.9-2.3-4.2-5.7-4-7.7.3-.7,1.5-.9,3.3-1.3,5-1.3,6.9-2.5,13.8-3.8,20.7-.7,3.6-1.2,7.2-2,10.7-1.2,5.5-2.4,10.5-3,16.2-.5,4.3-1.1,8.7-1.7,13-1.2,8.6-2.5,17.2-4.2,25.8-1.7,8.5-3.7,17-6.2,25.3-1.2,4.2-2.6,8.3-4.1,12.4-1.6,4.6-3.4,9.4-5.7,13.8-1.6,2.9-3.5,5.7-4.8,8.8-3.5,8.1,1.7,16,11.1,15.5,3.5-.2,6.4-2.5,7.6-5.7,3.8-8.8,7.6-17.5,11.3-26.3,1.4-3.4,1.5-5.4,5.4-5.4s7.8,2.2,11.5,3.3c6.1,1.9,12.3,3.7,18.4,5.6,12,3.6,23.9,7.7,36,10.9,1.4.4,2.7.7,4.1,1.1,11.5,14.4,22.8,29,34.5,43.2,3.3,4,6.9,8.5,11.4,11.2,1.4.9,3,1.6,4.7,1.8,3,.3,6.2-1.7,6.8-4.8.9-4.8-5.1-9.3-7.9-12.5-3.8-4.8-7.6-9.3-11.5-13.8ZM279.18,247.57c-2.2,2.2-12.1-.8-14.4-1.6-13.5-4.5-26.9-9-40.4-13.5.3-6.8.7-13.5,1-20.3,0-.9.1-1.8.1-2.7.4-4.1.7-8.1,1.1-12.2.1-1.3.2-2.7.3-4,.1-1.4.2-2.7.3-4.1,1.3-12.6,2.5-25.1,3.8-37.7,3,7,6.1,14,9.1,21.1,1.2,2.8,2.5,5.6,3.8,8.4,2.4,5.1,4.8,10.2,7.2,15.3,1.8,3.5,3.5,7.1,5.3,10.6,1.2,2.3,2.1,4.8,3.4,7,3,5.3,5.5,10.9,9.2,15.7,2,2.6,3.9,5.4,5.7,8.2,1.5,2.3,3.3,4.6,4.5,7.1.6,1.3.5,2.2,0,2.7Z"/>
      <path class="cls-1" d="M935.38,147.87c-1.4-1.2-3.1-2-5-2.7-3.3-1.3-7.1-2-10.2-2.9-3.5-1.1-7.1-2.3-10.5-3.5-6.1-2.2-12-4.6-18-6.9-9.4-3.5-18.7-7.1-27.9-11-18-7.5-35.7-15.8-52.6-25.5-20.6-11.8-39.7-25.5-56.7-41.9-15.9-15.5-31-31.8-46.2-48.1-4.4-4.7-9.5-6-15.2-5.1-8.4,1.3-6.5,13.9-5.4,19.7,4.8,25.5,8.2,51.1,16.7,75.7,2.7,7.8,6.1,15.3,9.7,22.8,3.3,6.8,6.2,14.2,10.4,20.4,3.1,4.6,6.2,9.2,9.3,13.8,2.5,3.6,4.8,7.4,7.4,10.9.7,1,3.2,6.2,4.3,6.2-5.2.1-8.7-1.9-13.3-3.6-2.2-.8-4.5-1.7-6.7-2.5-4.1-2-8.2-4-12.4-6-9.4-5-19.2-10.7-28-16.8-6.8-4.7-13.3-9.8-19.5-15.1-12.3-10.7-23.5-22.5-34.4-34.6-14.6-16.3-29.9-32.1-44.9-48.2-2.8-2.4-11.8-10.8-14.3-2.5-.3.9-.1,1.9.1,2.9.8,4.7,2.4,9.2,4.3,13.6,4.3,10,7.3,20.7,10.4,31.1.4,1.7.8,3.4,1.2,5.1.5,2.3,1,4.5,1.5,6.8,4.2,15.2,7,31,13,45.5,9.6,23.2,29.1,43.6,48.5,59,29.1,23.1,62.1,39.9,94.4,57.8,5.7,3.1,13.3,5.2,19.8,4.3,3.9-.5,8.7-3.9,5.8-8.2-1-1.5-2.6-2.5-4.1-3.5-5.4-3.3-11-6-16.5-9-23.9-12.8-48.1-25.3-70.4-40.9-11.1-7.7-21.7-16.2-31.5-25.6-6.9-6.7-13.8-11.9-19.4-20.1-5.4-7.9-9.6-16.6-12.9-25.5-2.8-7.6-5.6-15.3-8.4-22.9-1.7-4.7-3.3-9.4-4.5-14.2-.6-2.4-1-4.9-1.6-7.3-.3-1.2-1.4-4.1,1.2-2.6,2.9,1.7,5.1,3.8,7.6,6.1,9.7,8.7,17.1,20.3,25.7,30.2,11.4,13.1,24.2,24.6,39.3,33.5,17.1,11.7,35.5,20.8,55.3,27.1,12.3,3.9,25,7,37.4,10.7,8,2.3,16,4.7,24.3,4.7,2.5,0,5.1-.2,7.1-1.6,8.1-5.9-6.9-16.6-10.6-20.4-9.1-9.5-18.2-19-27.2-28.6-15.8-16.9-26.1-37.1-33.9-58.7-2.2-6.2-4.6-12.4-6.6-18.7-1.9-6.3-4.7-12.2-5.6-18.7-.1-.8-.2-1.7.1-2.5s1.1-1.5,1.9-1.4c.5.1.8.4,1.2.6,11.7,8.7,20.9,20.6,31.7,30.3,11,10,23.1,18.9,35.5,27.1,22.3,14.7,46.5,26,71.3,35.8,16.3,6.5,33,11.9,49.5,18,6.5,2.4,13.9,6,21,4.8,7.9-1.1,15.1-11,7.5-17.2Z"/>
    </g>
  </g>
</svg>