<?xml version="1.0" encoding="UTF-8"?>
<svg id="Capa_2" data-name="Capa 2" xmlns="http://www.w3.org/2000/svg" viewBox="0 0 261.44 262.37">
  <defs>
    <style>
      .cls-1 {
        fill: #c49fff;
      }
    </style>
  </defs>
  <g id="Layer_1" data-name="Layer 1">
    <g id="FOmRC2">
      <g>
        <path class="cls-1" d="M0,262.37c1.4-5.2,2.7-10,4-14.8,4.6-16.7,9.2-33.4,13.7-50.1.4-1.4.1-3.2-.5-4.4C-1.8,156.87-5.1,119.37,10.7,81.67,31,33.17,68.3,5.47,120.8.57c68.5-6.5,130.1,43.3,139.4,111.2,9.5,69-36.4,133.2-104.7,146.1-29.3,5.5-57.3,1.3-83.9-12.2-1.9-1-3.5-1.1-5.6-.6-21.1,5.6-42.3,11.1-63.4,16.7-.6.2-1.3.3-2.6.6ZM31.4,231.47c12.7-3.3,24.9-6.4,36.9-9.8,2.8-.8,4.9-.4,7.4,1.1,21.9,13,45.5,18,70.7,14.3,58.6-8.5,98.9-61.3,92.1-120.1-7.1-61.3-65.6-104.6-126.3-93.4C61.5,32.87,24.5,75.87,23.1,127.57c-.6,22,5.2,42.4,17.1,60.9,1.4,2.2,1.8,4.1,1.1,6.6-2.6,8.9-5,18-7.5,27-.7,2.9-1.5,5.9-2.4,9.4Z"/>
        <path class="cls-1" d="M62.8,99.07c.6-11.7,4.8-21.4,13.4-29.2,4.6-4.2,12.4-5.6,17.9-2.7,2.1,1.1,4.2,3.2,5.1,5.4,3.5,8.5,6.7,17.2,9.7,26,.6,1.6.2,3.9-.4,5.6-.7,1.8-2.1,3.2-3.4,4.7-1.6,2-3.4,3.8-5.1,5.8-2.4,2.9-2.7,5.7-.7,9.2,9.6,16.8,22.8,29.6,40,38.3,1.3.7,2.7,1.3,4.2,1.8,2.8.9,5.2.5,7.2-1.9,3.3-3.9,6.8-7.8,10.1-11.7,2.3-2.8,3.8-3.6,6.9-2,9.5,4.8,18.9,9.8,28.3,14.9,1.1.6,2,2.8,1.9,4.2-.9,14.3-4.9,19.8-18.2,26.1-9,4.3-18.3,3.5-27.6.7-32.7-9.9-57-30.3-74.9-59-4.4-7-9-13.9-11.3-22-1.3-4.6-2-9.5-3.1-14.2Z"/>
      </g>
    </g>
  </g>
</svg>